<svg xmlns="http://www.w3.org/2000/svg" width="1920" height="1180.818" viewBox="0 0 1920 1180.818">
  <g id="patternpad_4_" data-name="patternpad (4)" transform="translate(123.606)">
    <path id="Path_67" data-name="Path 67" d="M0,0H1796.394V1180.818H0Z" fill="none"/>
    <path id="Path_7" data-name="Path 7" d="M0,111.112c134.919,0,244.292,97.374,244.292,217.492L0,111.112C0,231.23,109.373,328.6,244.292,328.6" transform="translate(-22 -64.511)" fill="rgba(255,255,255,0.24)"/>
    <path id="Path_11" data-name="Path 11" d="M1333.334,111.112c162.491,0,294.216,118.686,294.216,265.094L1333.334,111.112c0,146.407,131.725,265.093,294.216,265.093" transform="translate(-251.818 -111.112)" fill="rgba(255,255,255,0.24)"/>
    <path id="Path_12" data-name="Path 12" d="M1444.447,376.206c0-146.407,151.072-265.093,337.428-265.093L1444.447,376.206c186.357,0,337.429-118.686,337.429-265.093" transform="translate(-74.471 -111.112)" fill="rgba(255,255,255,0.24)"/>
    <path id="Path_18" data-name="Path 18" d="M1333.334,333.337a111.113,111.113,0,0,1,111.112-111.112L1333.334,333.337a111.112,111.112,0,0,0,111.112-111.112" transform="translate(-149.518 205.665)" fill="rgba(255,255,255,0.24)"/>
    <path id="Path_19" data-name="Path 19" d="M1777.77,222.225c136.347,0,246.878,93.813,246.878,209.537L1777.77,222.225c0,115.724,110.531,209.537,246.878,209.537" transform="translate(-339.366 80.872)" fill="rgba(255,255,255,0.24)"/>
    <path id="Path_20" data-name="Path 20" d="M0,235.518C0,105.445,124.367,0,277.781,0L0,235.518C153.414,235.518,277.781,130.073,277.781,0" transform="translate(-123.606 580.908) rotate(-30)" fill="rgba(255,255,255,0.24)"/>
    <path id="Path_21" data-name="Path 21" d="M222.225,444.449A111.112,111.112,0,0,1,333.337,333.337L222.225,444.449A111.112,111.112,0,0,0,333.337,333.337" transform="translate(-55.164 308.497)" fill="rgba(255,255,255,0.24)"/>
    <path id="Path_29" data-name="Path 29" d="M1222.222,333.337a111.112,111.112,0,0,1,111.112,111.112L1222.222,333.337a111.112,111.112,0,0,0,111.112,111.112" transform="translate(-138.701 308.497)" fill="rgba(255,255,255,0.24)"/>
    <path id="Path_30" data-name="Path 30" d="M1333.334,568.855c0-130.073,156.592-235.518,349.758-235.518L1333.334,568.855c193.167,0,349.758-105.445,349.758-235.518" transform="translate(-180.463 160.979)" fill="rgba(255,255,255,0.24)"/>
    <path id="Path_33" data-name="Path 33" d="M1777.77,444.449a111.112,111.112,0,0,1,111.112-111.112L1777.77,444.449a111.112,111.112,0,0,0,111.112-111.112" transform="translate(-203.601 308.497)" fill="rgba(255,255,255,0.09)"/>
    <path id="Path_34" data-name="Path 34" d="M0,555.562A111.112,111.112,0,0,1,111.112,444.449L0,555.562A111.112,111.112,0,0,0,111.112,444.449" transform="translate(0 411.33)" fill="rgba(255,255,255,0.24)"/>
    <path id="Path_36" data-name="Path 36" d="M222.225,444.449A111.112,111.112,0,0,1,333.337,555.562L222.225,444.449A111.112,111.112,0,0,0,333.337,555.562" transform="translate(-55.164 411.33)" fill="rgba(255,255,255,0.24)"/>
    <path id="Path_44" data-name="Path 44" d="M1555.546,598.43c0-85.041,68.591-153.981,153.2-153.981l-153.2,153.981c84.611,0,153.2-68.94,153.2-153.981" transform="translate(-203.296 364.926)" fill="rgba(255,255,255,0.24)"/>
    <path id="Path_45" data-name="Path 45" d="M1666.658,555.562A111.112,111.112,0,0,1,1777.77,444.449L1666.658,555.562A111.112,111.112,0,0,0,1777.77,444.449" transform="translate(-203.601 411.33)" fill="rgba(255,255,255,0.24)"/>
    <path id="Path_46" data-name="Path 46" d="M1777.77,555.562a111.112,111.112,0,0,1,111.112-111.112L1777.77,555.562a111.112,111.112,0,0,0,111.112-111.112" transform="translate(-203.601 411.33)" fill="rgba(255,255,255,0.09)"/>
    <path id="Path_48" data-name="Path 48" d="M0,555.548A111.112,111.112,0,0,1,111.112,666.661L0,555.548A111.112,111.112,0,0,0,111.112,666.661" transform="translate(0 514.154)" fill="rgba(255,255,255,0.24)"/>
    <path id="Path_49" data-name="Path 49" d="M111.112,666.661A111.112,111.112,0,0,1,222.225,555.548L111.112,666.661A111.112,111.112,0,0,0,222.225,555.548" transform="translate(0 514.154)" fill="rgba(255,255,255,0.24)"/>
    <path id="Path_53" data-name="Path 53" d="M555.548,555.548A111.112,111.112,0,0,1,666.661,666.661L555.548,555.548A111.112,111.112,0,0,0,666.661,666.661" transform="translate(-73.8 514.154)" fill="rgba(255,255,255,0.09)"/>
    <path id="Path_54" data-name="Path 54" d="M666.661,666.661A111.112,111.112,0,0,1,777.773,555.548L666.661,666.661A111.112,111.112,0,0,0,777.773,555.548" transform="translate(-84.617 514.154)" fill="rgba(255,255,255,0.09)"/>
    <path id="Path_57" data-name="Path 57" d="M1000,555.548A110.989,110.989,0,0,1,1111.11,666.661L1000,555.548A111.112,111.112,0,0,0,1111.11,666.661" transform="translate(-117.067 514.154)" fill="rgba(255,255,255,0.24)"/>
    <path id="Path_68" data-name="Path 68" d="M0,111.112A111.239,111.239,0,0,0,108.28,25.035,110.8,110.8,0,0,0,111.112,0L0,111.112A111.112,111.112,0,0,1,111.112,0" transform="translate(1156.992 407.865) rotate(-166)" fill="rgba(255,255,255,0.24)"/>
    <path id="Path_58" data-name="Path 58" d="M1222.222,555.548" transform="translate(-134.425 514.154)" fill="rgba(255,255,255,0.24)"/>
    <path id="Path_60" data-name="Path 60" d="M1333.334,666.661a111.112,111.112,0,0,1,111.112-111.112L1333.334,666.661a111.112,111.112,0,0,0,111.112-111.112" transform="translate(-149.518 514.154)" fill="rgba(255,255,255,0.24)"/>
    <path id="Path_69" data-name="Path 69" d="M0,0A111.112,111.112,0,0,0,111.112,111.112L0,0A111.112,111.112,0,0,1,111.112,111.112" transform="translate(861.463 290.876) rotate(-166)" fill="rgba(255,255,255,0.24)"/>
    <path id="Path_63" data-name="Path 63" d="M1666.658,555.548A111.112,111.112,0,0,1,1777.77,666.661L1666.658,555.548A111.112,111.112,0,0,0,1777.77,666.661" transform="translate(-203.601 514.154)" fill="rgba(255,255,255,0.24)"/>
    <path id="Path_70" data-name="Path 70" d="M0,111.112A111.112,111.112,0,0,0,111.112,0L0,111.112A111.112,111.112,0,0,1,111.112,0" transform="translate(556.764 200.297) rotate(-166)" fill="rgba(255,255,255,0.24)"/>
    <path id="Path_64" data-name="Path 64" d="M1777.77,666.661a111.112,111.112,0,0,1,111.112-111.112L1777.77,666.661a111.112,111.112,0,0,0,111.112-111.112" transform="translate(-203.601 514.154)" fill="rgba(255,255,255,0.09)"/>
    <path id="Path_71" data-name="Path 71" d="M0,0A111.112,111.112,0,0,0,111.112,111.112L0,0A111.112,111.112,0,0,1,111.112,111.112" transform="translate(466.34 173.417) rotate(-166)" fill="rgba(255,255,255,0.09)"/>
    <path id="Path_65" data-name="Path 65" d="M1888.883,555.548a111.112,111.112,0,0,1,111.112,111.112L1888.883,555.548a111.112,111.112,0,0,0,111.112,111.112" transform="translate(-203.601 514.154)" fill="rgba(255,255,255,0.09)"/>
  </g>
</svg>
