<svg id="Capa_1" enable-background="new 0 0 512 512" height="512" viewBox="0 0 512 512" width="512" xmlns="http://www.w3.org/2000/svg"><g><path d="m136 302v90h105v-90h-37.5v60h-30v-60z"/><path d="m376 302h-37.5v60h-30v-60h-37.5v90h105z"/><path d="m473.5 362h-30v-60h-37.5v90h106v-90h-38.5z"/><path d="m106 302h-37.5v60h-30v-60h-38.5v90h106z"/><path d="m473.5 182v60h-30v-60h-37.5v90h106v-90z"/><path d="m0 482h31v30h60v-30h135v30h60v-30h135v30h60v-30h31v-60h-512z"/><path d="m376 182h-37.5v60h-30v-60h-37.5v90h105z"/><path d="m106 242h60v-111h57.9l-87.9-131-87.9 131h57.9z"/></g></svg>