<svg height="512pt" viewBox="0 0 512 512" width="512pt" xmlns="http://www.w3.org/2000/svg"><path d="m437.019531 74.980469c-48.351562-48.351563-112.640625-74.980469-181.019531-74.980469s-132.667969 26.628906-181.019531 74.980469c-48.351563 48.351562-74.980469 112.640625-74.980469 181.019531s26.628906 132.667969 74.980469 181.019531c48.351562 48.351563 112.640625 74.980469 181.019531 74.980469s132.667969-26.628906 181.019531-74.980469c48.351563-48.351562 74.980469-112.640625 74.980469-181.019531s-26.628906-132.667969-74.980469-181.019531zm-349.972656 31.09375c9.8125 8.917969 25.46875 21.234375 47.023437 32.496093-8.511718 31.484376-13.503906 66.265626-14.585937 102.429688h-88.972656c3.394531-51.589844 24.179687-98.503906 56.535156-134.925781zm281.625 3.308593c-3.949219-10.742187-8.347656-20.96875-13.191406-30.558593-6.734375-13.332031-14.140625-25.074219-22.082031-35.167969 25.914062 9.472656 49.621093 23.566406 70.125 41.269531-6.636719 5.882813-16.351563 13.542969-29.089844 21.144531-1.90625 1.136719-3.828125 2.238282-5.761719 3.3125zm-127.671875 27.628907c-24.886719-1.417969-48.429688-6.394531-70.40625-14.871094 3.769531-10.527344 8.011719-20.496094 12.703125-29.789063 16.195313-32.050781 36.625-53.039062 57.703125-59.894531zm0 30.039062v73.949219h-91.503906c1.007812-31.8125 5.214844-62.332031 12.316406-90.0625 22.132812 8.273438 48.523438 14.539062 79.1875 16.113281zm0 103.949219v73.949219c-30.664062 1.574219-57.054688 7.839843-79.1875 16.113281-7.101562-27.730469-11.308594-58.25-12.316406-90.0625zm0 103.996094v104.546875c-21.078125-6.851563-41.507812-27.84375-57.703125-59.894531-4.6875-9.277344-8.917969-19.226563-12.683594-29.734376 19.527344-7.503906 42.984375-13.328124 70.386719-14.917968zm30-.007813c24.886719 1.417969 48.429688 6.394531 70.40625 14.871094-3.769531 10.527344-8.011719 20.496094-12.707031 29.789063-16.191407 32.050781-36.625 53.042968-57.699219 59.894531zm0-30.039062v-73.949219h91.503906c-1.007812 31.8125-5.214844 62.332031-12.316406 90.0625-22.136719-8.273438-48.523438-14.539062-79.1875-16.113281zm0-103.949219v-73.949219c30.664062-1.574219 57.050781-7.839843 79.1875-16.113281 7.101562 27.730469 11.308594 58.25 12.316406 90.0625zm0-103.988281v-104.554688c21.078125 6.851563 41.507812 27.84375 57.699219 59.894531 4.695312 9.292969 8.9375 19.261719 12.707031 29.789063-21.976562 8.476563-45.519531 13.453125-70.40625 14.871094zm-114.480469-58.1875c-4.84375 9.589843-9.242187 19.816406-13.191406 30.558593-1.933594-1.074218-3.855469-2.175781-5.761719-3.3125-12.738281-7.601562-22.449218-15.261718-29.089844-21.144531 20.503907-17.703125 44.214844-31.796875 70.125-41.269531-7.945312 10.09375-15.347656 21.835938-22.082031 35.167969zm-37.035156 192.175781c1.085937 36.164062 6.074219 70.941406 14.585937 102.429688-21.554687 11.261718-37.210937 23.578124-47.023437 32.496093-32.355469-36.421875-53.140625-83.335937-56.535156-134.925781zm23.84375 131.617188c3.949219 10.742187 8.347656 20.96875 13.191406 30.558593 6.734375 13.332031 14.136719 25.074219 22.082031 35.167969-25.921874-9.476562-49.636718-23.574219-70.144531-41.289062 7.566407-6.707032 19.1875-15.746094 34.871094-24.4375zm212.152344 30.558593c4.84375-9.589843 9.242187-19.816406 13.191406-30.558593 1.933594 1.078124 3.855469 2.175781 5.761719 3.3125 12.742187 7.605468 22.457031 15.265624 29.089844 21.144531-20.503907 17.703125-44.210938 31.796875-70.125 41.273437 7.941406-10.097656 15.34375-21.839844 22.082031-35.171875zm69.472656-27.25c-9.8125-8.917969-25.46875-21.234375-47.023437-32.496093 8.511718-31.488282 13.503906-66.265626 14.585937-102.429688h88.972656c-3.394531 51.589844-24.179687 98.503906-56.535156 134.925781zm-32.4375-164.925781c-1.085937-36.164062-6.074219-70.941406-14.585937-102.429688 21.554687-11.261718 37.210937-23.578124 47.023437-32.496093 32.355469 36.421875 53.140625 83.335937 56.535156 134.925781zm0 0"/></svg>