<svg id="Layer_3" enable-background="new 0 0 64 64" height="512" viewBox="0 0 64 64" width="512" xmlns="http://www.w3.org/2000/svg"><g><path d="m28.999 42c0 1.103.896 2 2 2v-4c-1.103 0-2 .896-2 2z"/><path d="m2.998 32.999v24h58.001v-24zm15.001 18.001h-1.999v-2h1.999zm0-10h-1.999v-2h1.999zm-10.999-4v16h10.999v2h-11.999c-.553 0-1-.448-1-1v-18c0-.553.447-1 .999-1h12l.001 2zm5 4v-2h1.999v2zm1.999 8v2h-1.999v-2zm18 6.999c-6.065 0-10.999-4.934-10.999-10.999s4.934-11 10.999-11c6.064 0 10.999 4.935 10.999 11s-4.935 10.999-10.999 10.999zm26.999-1.999c0 .552-.447 1-1 1h-11.999v-2h10.999v-16h-11l.001-2h12c.552 0 .999.447.999 1zm-11-5v2h-1.999v-2zm-1.999-8v-2h1.999v2zm5.999 8v2h-1.999v-2zm-1.999-8v-2h1.999v2z"/><path d="m31.999 36c-4.963 0-8.999 4.037-8.999 9 0 4.962 4.036 8.999 8.999 8.999 4.962 0 8.999-4.037 8.999-8.999 0-4.963-4.037-9-8.999-9zm1.001 8c2.204 0 3.998 1.794 3.998 4s-1.794 4-3.998 4h-.002v1h-1.999v-1c-2.206 0-4-1.794-4-3.999l2-.001c0 1.103.896 2 2 2v-4c-2.206 0-4-1.794-4-3.999 0-2.206 1.794-4 4-4v-1h1.999v1h.002c2.204 0 3.998 1.794 3.998 4h-2c0-1.103-.896-2-1.998-2h-.002v4z"/><path d="m32.998 49.999h.002c1.102 0 1.998-.897 1.998-1.999 0-1.104-.896-2.001-1.998-2.001h-.002z"/><path d="m27.226 30.999h2.357l-1.827-1.827c-.483.483-.665 1.178-.53 1.827z"/><path d="m24.222 24.221c4.288-4.288 11.266-4.288 15.556 0 1.84 1.84 2.943 4.217 3.172 6.778h7.635l10-10-17.586-17.585-27.585 27.585h5.634c.229-2.56 1.333-4.938 3.174-6.778zm14.098-4.2-1.413-1.415 1.415-1.414 1.413 1.415zm2.83-2.829-1.415-1.415 1.414-1.414 1.415 1.415zm2.828 8.486 1.414-1.415 1.415 1.414-1.414 1.415zm-1.415-18.386c.391-.39 1.024-.391 1.415 0l12.729 12.728c.188.188.292.442.292.707 0 .266-.104.52-.292.708l-8.485 8.485-1.415-1.415 7.778-7.778-11.314-11.313-7.778 7.778-1.415-1.415zm4.244 15.557 1.414-1.414 1.415 1.415-1.414 1.414z"/><path d="m32 30.585c1.51-1.511 4.146-1.511 5.655 0 .13.13.248.269.358.414h2.926c-.223-2.026-1.115-3.902-2.576-5.363-3.51-3.509-9.22-3.51-12.728 0-1.463 1.462-2.355 3.338-2.577 5.363h2.14c-.125-1.172.264-2.363 1.143-3.242l-.708-.708 1.415-1.415.707.707c1.561-1.559 4.098-1.558 5.656 0l-1.411 1.416c-.781-.779-2.048-.779-2.829-.001z"/></g></svg>