<svg id="Capa_1" enable-background="new 0 0 512 512" height="512" viewBox="0 0 512 512" width="512" xmlns="http://www.w3.org/2000/svg"><g><path d="m79.167 74.56h-30v67.465h-49.167v335.285h128.333v-335.285h-49.166zm8.132 327.75h-46.265v-30h46.266v30zm0-60h-46.265v-30h46.266v30zm0-60h-46.265v-30h46.266v30zm0-90v30h-46.265v-30z"/><path d="m462.833 142.025v-67.465h-30v67.465h-49.167v335.285h128.334v-335.285zm8.133 260.285h-46.266v-30h46.266zm0-60h-46.266v-30h46.266zm0-60h-46.266v-30h46.266zm0-60h-46.266v-30h46.266z"/><path d="m241 432.31h30v45h-30z"/><path d="m158.333 477.31h52.667v-75h90v75h52.667v-442.62l-195.334 45.954zm112.667-345.001h46.266v30h-46.266zm0 60.001h46.266v30h-46.266zm0 60h46.266v30h-46.266zm0 60h46.266v30h-46.266zm-76.266-180.001h46.266v30h-46.266zm0 60.001h46.266v30h-46.266zm0 60h46.266v30h-46.266zm0 60h46.266v30h-46.266z"/></g></svg>