<svg viewBox="0 0 512.0005 512.0005" xmlns="http://www.w3.org/2000/svg"><path d="m446.917969 171.148438-169.703125 169.703124 84.851562 84.855469 136.773438-137.886719c17.546875-17.546874 17.546875-46.09375 0-63.640624zm0 0"/><path d="m192.359375 256 63.636719-63.640625 63.640625 63.640625-63.640625 63.636719zm0 0"/><path d="m86.292969 362.066406 137.886719 136.773438c17.546874 17.546875 46.09375 17.546875 63.640624 0l53.03125-51.921875-169.703124-169.703125zm0 0"/><path d="m65.082031 340.851562 169.707031-169.703124-84.855468-84.855469-136.773438 137.886719c-17.546875 17.546874-17.546875 46.09375 0 63.640624zm0 0"/><path d="m425.707031 149.933594-137.886719-136.773438c-17.546874-17.546875-46.09375-17.546875-63.640624 0l-53.03125 51.921875 169.703124 169.707031zm0 0"/></svg>